# xmcd CD database file
#
# Track frame offsets:
#	150
#	2422
#	17496
#	29775
#	45729
#	61649
#	66304
#	82242
#	97070
#	113020
#	127159
#	138341
#	142047
#	145169
#	149846
#	157343
#	173304
#
# Disc length: 4291 seconds
#
# Revision: 0
# Processed by: cddbd v1.5.1PL0 Copyright (c) Steve Scherf et al.
# Submitted via: CDex 1.51
#
DISCID=fb10c111
DTITLE=Juan Carlos Caballero - Salsa, Mambo on 1, 2, 3...
DYEAR=2004
DGENRE=Salsa
TTITLE0=Clave-Rhythmus
TTITLE1=Clave-+ Tumbao-Rhythmus
TTITLE2=Clave-+ Tumbao-+ Bass-+ Piano-Rhythmus
TTITLE3=Clave-+ Tumbao-+ Bass-+ Piano-+ imbal-Rhythmus
TTITLE4=Salsafantasy
TTITLE5=Clave-Rhythmus
TTITLE6=Clave-+ Tumbao-Rhythmus
TTITLE7=Clave-+ Tumbao-+ Bass-+ Piano-Rhythmus
TTITLE8=Clave-+ Tumbao-+ Bass-+ Piano-+ Timbal-Rhythmus
TTITLE9=Mambofantasy
TTITLE10=Cha-Cha-Cha 2001
TTITLE11=Gezählter 3/2-Clave-Rhythmus
TTITLE12=Gezählter 2/3-Clave-Rhythmus
TTITLE13=Rumba-Clave-Rhythmus
TTITLE14=Open, Slap und Conga-Improvisation
TTITLE15=Cencerro auf Down- und Off-Beat II
TTITLE16=Data Track
EXTD=YEAR: 2004
EXTT0=
EXTT1=
EXTT2=
EXTT3=
EXTT4=
EXTT5=
EXTT6=
EXTT7=
EXTT8=
EXTT9=
EXTT10=
EXTT11=
EXTT12=
EXTT13=
EXTT14=
EXTT15=
EXTT16=
PLAYORDER=
